<?xml version="1.0" encoding="UTF-8"?>
<svg id="Calque_1" data-name="Calque 1" xmlns="http://www.w3.org/2000/svg" viewBox="0 0 534.29 711.51">
  <defs>
    <style>
      .cls-1 {
        fill: #e6332a;
      }
    </style>
  </defs>
  <path class="cls-1" d="M180.11,304.63l5.57-1.51c-1.91,.52-3.78,1.03-5.57,1.51Z"/>
  <path class="cls-1" d="M509.27,215.42l-314.57,85.26-6.1,1.65-2.92,.78-5.57,1.51-12.34,3.34-1.27,.34-3.56,.97-1.13,.3-2.15,.58-1.99,.54-1.87,.5-1.71,.46-1.55,.42-1.41,.38-5.45,1.47c-.3,.08-.5,.36-.5,.66v253.48c0,.36,.26,.66,.62,.68,44.9,2.68,77.9,38.23,77.9,83.25v38.54c0,11.57-9.38,20.95-20.95,20.95H20.95c-11.57,0-20.95-9.38-20.95-20.95v-38.54c0-45.02,33-80.57,77.9-83.25,.36-.02,.64-.32,.64-.68V34.79C78.54,13.64,97.44-3.2,118.27,.52c15.74,2.82,26.91,15.92,26.91,32.76v18.49c0,.32,.2,.58,.5,.66l363.51,97.54c33.43,8.98,33.49,56.39,.08,65.44Z"/>
</svg>